<svg xmlns="http://www.w3.org/2000/svg" width="64" height="64" viewBox="0 0 64 64" role="img" aria-label="Contoso Shop">
  <defs>
    <linearGradient id="g" x1="10" y1="6" x2="54" y2="58" gradientUnits="userSpaceOnUse">
      <stop offset="0" stop-color="#2B88D8"/>
      <stop offset="1" stop-color="#0A55A5"/>
    </linearGradient>
    <linearGradient id="gold" x1="20" y1="34" x2="44" y2="54" gradientUnits="userSpaceOnUse">
      <stop offset="0" stop-color="#FFD36E"/>
      <stop offset="1" stop-color="#F2A400"/>
    </linearGradient>
    <filter id="s" x="-20%" y="-20%" width="140%" height="140%">
      <feDropShadow dx="0" dy="2" stdDeviation="2" flood-color="#000" flood-opacity=".18"/>
    </filter>
  </defs>

  <!-- Rounded square backdrop -->
  <rect x="6" y="6" width="52" height="52" rx="14" fill="url(#g)" filter="url(#s)"/>

  <!-- Certificate sheet -->
  <rect x="16" y="16" width="32" height="22" rx="6" fill="#fff" opacity=".98"/>
  <path d="M20 23h16" stroke="#0A55A5" stroke-width="2" stroke-linecap="round" opacity=".65"/>
  <path d="M20 28h20" stroke="#0A55A5" stroke-width="2" stroke-linecap="round" opacity=".45"/>

  <!-- Contoso "C" monogram -->
  <path d="M37.2 24.2a6.2 6.2 0 1 0 0 7.6" fill="none" stroke="#0A55A5" stroke-width="3.2" stroke-linecap="round"/>

  <!-- Seal -->
  <circle cx="38" cy="41.5" r="7.8" fill="url(#gold)"/>
  <path d="M38 35.8l1.6 3.4 3.7.5-2.7 2.6.7 3.7-3.3-1.8-3.3 1.8.7-3.7-2.7-2.6 3.7-.5z" fill="#fff" opacity=".95"/>

  <!-- Ribbon tails -->
  <path d="M34.4 47.5l-2.2 9 5.8-3.4 5.8 3.4-2.2-9" fill="#F2A400" opacity=".95"/>
</svg>
